<svg width="35" height="42" viewBox="0 0 35 42" fill="none" xmlns="http://www.w3.org/2000/svg">
<path d="M26.915 41.8533H2.80746C0.913798 41.1202 0.445005 40.4296 0.445005 38.3749C0.445005 29.8137 0.445005 21.2515 0.445005 12.6903C0.445005 11.1838 0.422163 9.67738 0.453706 8.17202C0.478723 6.94185 1.09327 6.05539 2.2299 5.58986C2.60624 5.4354 3.04566 5.39516 3.46007 5.38102C4.33566 5.35056 5.21343 5.37232 6.12817 5.37232C6.12817 4.95791 6.10859 4.59353 6.13361 4.23133C6.1608 3.8278 6.17712 3.41339 6.28697 3.02727C6.75033 1.38921 8.31877 0.212331 10.0863 0.168824C11.0489 0.144895 12.0136 0.160122 12.9762 0.160122C18.8661 0.160122 24.7559 0.184051 30.6457 0.148158C33.0038 0.134018 35.0574 1.85909 34.9986 4.47389C34.9149 8.18943 34.978 11.9093 34.978 15.627C34.978 21.271 34.9747 26.9161 34.9812 32.5601C34.9823 33.724 34.5919 34.7116 33.7445 35.5056C32.9603 36.2409 32.014 36.6063 30.9427 36.6357C30.4053 36.6509 29.868 36.6379 29.2894 36.6379C29.2894 37.5048 29.3068 38.3173 29.285 39.1276C29.2546 40.3164 28.4932 41.3204 27.3718 41.6989C27.2195 41.75 27.0672 41.8011 26.9139 41.8523L26.915 41.8533ZM26.6887 23.615C26.6887 18.6073 26.6887 13.5996 26.6887 8.59187C26.6887 8.18363 26.49 7.9795 26.0927 7.9795C18.6137 7.9795 11.1348 7.9795 3.65586 7.9795C3.25341 7.9795 3.05219 8.18254 3.05219 8.58861C3.05219 18.604 3.05219 28.6195 3.05219 38.636C3.05219 39.0442 3.25196 39.2487 3.65151 39.2494C11.1304 39.2494 18.6094 39.2494 26.0883 39.2494C26.4879 39.2494 26.688 39.0464 26.6887 38.6403C26.6887 33.6326 26.6887 28.6249 26.6887 23.6172V23.615ZM8.74297 5.37232H9.27811C14.9645 5.37232 20.651 5.37449 26.3385 5.37014C27.2946 5.37014 28.0853 5.70624 28.689 6.45239C29.1654 7.03974 29.3003 7.72607 29.2992 8.47005C29.2916 16.8159 29.2948 25.1606 29.2948 33.5064V34.0372C29.7658 34.0372 30.1726 34.0372 30.5794 34.0372C30.7153 34.0372 30.8513 34.0416 30.9862 34.0307C31.828 33.9622 32.3708 33.3955 32.3708 32.5754C32.3719 23.1168 32.3708 13.6594 32.3741 4.20088C32.3741 3.58307 32.0956 3.14909 31.542 2.93155C31.2494 2.81625 30.91 2.77492 30.5924 2.77383C23.901 2.76513 17.2106 2.76731 10.5192 2.76731C10.3701 2.76731 10.22 2.76187 10.0721 2.7771C9.36404 2.84888 8.78865 3.34052 8.7495 3.94527C8.72013 4.4021 8.74406 4.86328 8.74406 5.37341L8.74297 5.37232Z" fill="white"/>
<path d="M15.1052 15.1441C17.1142 15.1441 19.122 15.1441 21.131 15.1441C21.999 15.1441 22.5917 15.6695 22.5972 16.4363C22.6026 17.2053 22.0098 17.748 21.1516 17.7491C17.1207 17.7513 13.0908 17.7513 9.05983 17.7491C8.20165 17.7491 7.60886 17.2042 7.61429 16.4363C7.62082 15.6662 8.20817 15.1463 9.07941 15.1452C11.0884 15.1441 13.0962 15.1452 15.1052 15.1452V15.1441Z" fill="white"/>
<path d="M15.1462 20.3552C17.141 20.3552 19.1358 20.3552 21.1306 20.3552C21.9975 20.3552 22.5903 20.8817 22.5957 21.6485C22.6012 22.4175 22.0084 22.9591 21.1491 22.9602C17.1181 22.9624 13.0883 22.9624 9.05729 22.9602C8.2002 22.9602 7.60632 22.4153 7.61285 21.6463C7.61937 20.8773 8.20781 20.3574 9.07905 20.3563C11.1011 20.3552 13.1231 20.3563 15.1451 20.3563L15.1462 20.3552Z" fill="white"/>
<path d="M15.1074 28.1724C13.0984 28.1724 11.0906 28.1735 9.0816 28.1724C8.21363 28.1724 7.62084 27.6471 7.61431 26.8814C7.60779 26.1091 8.19731 25.5685 9.05767 25.5685C13.1017 25.5674 17.1457 25.5663 21.1908 25.5685C21.8804 25.5685 22.3644 25.9144 22.545 26.5181C22.7038 27.0489 22.5113 27.6514 22.0153 27.9331C21.7586 28.0789 21.4301 28.1594 21.1332 28.1626C19.1253 28.1822 17.1163 28.1724 15.1074 28.1724Z" fill="white"/>
</svg>
