<svg width="41" height="35" viewBox="0 0 41 35" fill="none" xmlns="http://www.w3.org/2000/svg">
<path d="M0 1.11148C0.375102 0.240161 1.06513 -0.000989342 1.98383 3.04705e-06C14.4073 0.0168737 26.8299 0.0109193 39.2534 0.0119117C40.1981 0.0119117 40.7979 0.418791 40.9624 1.18194C40.9985 1.34767 40.9985 1.52233 40.9985 1.69401C41.0005 9.32549 41.0005 16.957 40.9985 24.5884C40.9985 25.683 40.4318 26.2467 39.3236 26.2467C34.5064 26.2497 29.6893 26.2477 24.8721 26.2477H24.3646V31.0489C25.1419 31.2226 25.9322 31.3545 26.6945 31.5808C27.7907 31.9043 28.8719 32.2794 29.947 32.6655C30.6962 32.9334 31.0152 33.5884 30.7654 34.2285C30.5037 34.8974 29.8257 35.1733 29.0815 34.8696C27.3735 34.1729 25.6143 33.6529 23.7869 33.3909C19.9055 32.8352 16.1294 33.2421 12.4717 34.6612C12.236 34.7525 12.0053 34.8587 11.7656 34.9361C11.1327 35.1395 10.4858 34.8428 10.2541 34.2533C10.0134 33.643 10.2772 32.9652 10.9361 32.73C12.1989 32.2785 13.4766 31.8617 14.7604 31.4716C15.3682 31.2871 16.006 31.1977 16.6479 31.0618V26.2497H16.2588C12.8157 26.2497 9.37355 26.2447 5.93043 26.2606C5.72182 26.2606 5.46506 26.3727 5.31362 26.5176C4.30766 27.4832 3.28365 28.4339 2.3489 29.464C1.64684 30.2371 0.483421 30.3502 0 29.082C0 28.95 0 28.818 0 28.686C0.235693 28.3585 0.4423 28.0052 0.713096 27.7095C1.15339 27.2272 1.6348 26.7836 2.10118 26.3211C2.04802 26.2745 2.03899 26.2606 2.02997 26.2606C1.96377 26.2547 1.89657 26.2437 1.83138 26.2497C0.933744 26.3271 0.317934 25.9609 0 25.1204V1.11148ZM7.99851 23.8422H38.5663V2.41052H2.42513V23.8729C3.04495 23.8729 3.64271 23.8928 4.23846 23.862C4.43804 23.8511 4.67775 23.7558 4.82017 23.6179C6.15409 22.3238 7.46995 21.0119 8.79084 19.7049C8.87208 19.6245 8.94429 19.5362 9.02853 19.4419C7.89621 18.1965 7.26234 16.7605 7.15202 15.1062C6.86117 10.7367 10.7737 7.20177 15.1967 7.83492C18.2747 8.27554 20.6487 10.6473 21.1241 13.7555C21.5624 16.6215 19.9627 19.6334 17.3129 20.9057C15.326 21.8604 13.3141 21.8971 11.2822 21.0317C11.1608 20.9801 10.9381 20.9583 10.8659 21.0287C9.92016 21.9358 8.99243 22.8617 7.99951 23.8422H7.99851ZM14.1546 19.2653C16.7111 19.2702 18.8063 17.2001 18.7902 14.6864C18.7742 12.1677 16.7121 10.1343 14.1706 10.1313C11.6272 10.1283 9.55408 12.1588 9.53703 14.6705C9.51998 17.1931 11.5971 19.2603 14.1546 19.2653ZM19.0811 30.7869H21.8984V26.2824H19.0811V30.7869Z" fill="white"/>
<path d="M27.9985 15.5233C27.9985 17.3232 28.0035 19.1231 27.9952 20.923C27.9918 21.6485 27.433 22.1224 26.7832 21.9722C26.4178 21.888 26.1726 21.6503 26.0625 21.2806C26.0174 21.1295 26.0032 20.9629 26.0024 20.8032C25.9991 17.2729 25.9999 13.7425 26.0007 10.2121C26.0007 10.1089 26.0024 10.0039 26.0174 9.90146C26.1058 9.32348 26.5429 8.9616 27.0943 9.00325C27.5981 9.04144 27.9718 9.46234 27.9952 10.0195C28.0002 10.1349 27.9977 10.2503 27.9977 10.3658C27.9977 12.0849 27.9977 13.8041 27.9977 15.5233H27.9985Z" fill="white"/>
<path d="M30.0019 17.0227C30.0019 15.7038 29.9977 14.3841 30.0035 13.0653C30.006 12.4326 30.4261 11.9966 31.0062 12C31.5589 12.0034 31.9823 12.4258 31.9931 13.0135C32.0056 13.7124 31.9973 14.4113 31.9973 15.111C31.9973 17.0388 31.9998 18.9666 31.9956 20.8953C31.9939 21.5611 31.548 22.0276 30.9579 21.9987C30.4103 21.9724 30.0069 21.5399 30.0035 20.947C29.9969 19.6392 30.0019 18.3314 30.001 17.0235L30.0019 17.0227Z" fill="white"/>
<path d="M34.0013 18.4878C34.0013 17.6875 33.9979 16.8872 34.0021 16.0861C34.0054 15.4185 34.3979 14.996 35.0029 15C35.5903 15.0041 35.9928 15.4266 35.9953 16.0706C36.0011 17.6932 36.002 19.3158 35.9953 20.9383C35.9928 21.5677 35.5637 22.0048 34.9862 22C34.4071 21.9943 34.0063 21.5603 34.0029 20.922C33.9988 20.1104 34.0021 19.2995 34.0021 18.4878H34.0013Z" fill="white"/>
<path d="M23.9965 19.0054C23.9965 19.6429 24.0024 20.2805 23.9949 20.9181C23.9874 21.5428 23.589 21.9833 23.03 21.9996C22.466 22.0159 22.0152 21.5677 22.0094 20.9344C21.9961 19.6481 21.9977 18.3618 22.0094 17.0746C22.0152 16.4285 22.4377 15.9966 23.0158 16C23.5931 16.0034 23.9899 16.4396 23.9965 17.0926C24.0032 17.7302 23.9982 18.3678 23.9982 19.0054H23.9965Z" fill="white"/>
</svg>
