<svg width="50" height="47" viewBox="0 0 50 47" fill="none" xmlns="http://www.w3.org/2000/svg">
<path d="M5.34748 9.87839C5.34748 10.0626 5.34748 10.2573 5.34748 10.4508C5.34748 19.4447 5.34218 28.4372 5.35013 37.4311C5.35278 40.7012 7.53103 43.3365 10.7375 43.9844C11.1562 44.0692 11.5881 44.0918 12.1035 44.1554C12.1035 44.6191 12.0704 45.0934 12.1101 45.5612C12.1923 46.5271 12.9475 47.0306 13.8087 46.7258C14.3083 46.5496 14.5269 46.1547 14.5785 45.6672C14.6289 45.1769 14.6315 44.6827 14.658 44.1514H35.3236C35.3501 44.6469 35.3514 45.1239 35.4044 45.5956C35.4945 46.3972 35.9371 46.8133 36.6433 46.8093C37.3376 46.8053 37.7907 46.3641 37.8835 45.5824C37.9126 45.3372 37.9047 45.0868 37.9086 44.8391C37.9126 44.6112 37.9086 44.3833 37.9086 44.1766C38.5406 44.0759 39.1369 44.0295 39.7079 43.8798C42.6348 43.1166 44.6448 40.5461 44.6501 37.5212C44.6646 30.165 44.6554 22.8074 44.654 15.4512C44.654 14.5741 44.1784 14.0706 43.3821 14.0785C42.5884 14.0865 42.134 14.582 42.1326 15.4764C42.1273 18.2866 42.1247 21.0969 42.1366 23.9072C42.1379 24.2782 42.0492 24.5498 41.7696 24.8188C40.3492 26.1795 38.9461 27.5588 37.5496 28.9447C36.5108 29.9742 35.2812 30.4962 33.8118 30.4936C27.9422 30.4856 22.0726 30.487 16.203 30.4936C14.8343 30.4949 13.6511 30.059 12.6375 29.1315C12.0585 28.6029 11.339 28.583 10.8527 29.0414C10.3824 29.4853 10.328 30.275 10.7852 30.8487C11.0382 31.1667 11.3483 31.4648 11.6901 31.6808C13.0403 32.5367 14.5083 33.0322 16.1288 33.0322C22.1799 33.0296 28.2324 33.0296 34.2835 33.0375C35.7383 33.0389 37.0235 32.5288 38.1259 31.649C39.2853 30.7241 40.3466 29.6761 41.441 28.6731C41.6331 28.4969 41.7842 28.2743 41.9538 28.0742L42.1141 28.1418C42.1141 28.2915 42.1141 28.4425 42.1141 28.5923C42.1141 31.4688 42.1207 34.3453 42.1114 37.2218C42.1035 39.8611 40.3943 41.5598 37.7589 41.5611C29.2433 41.5624 20.7277 41.5624 12.2135 41.5611C9.63243 41.5611 7.88215 39.8691 7.87817 37.3039C7.86492 28.2782 7.87288 19.2512 7.87288 10.2242C7.87288 10.1103 7.8848 9.99763 7.89408 9.83864C8.0862 9.83069 8.26109 9.81611 8.43466 9.81611C20.6535 9.81611 32.8724 9.81611 45.0913 9.81611C46.6574 9.81611 47.4246 10.5886 47.4259 12.164C47.4259 13.4373 47.4126 14.7106 47.4312 15.9825C47.4444 16.9643 48.2924 17.5778 49.1483 17.2465C49.6412 17.0557 49.9526 16.6755 49.9592 16.1574C49.9791 14.5714 50.0573 12.9762 49.9235 11.4008C49.7154 8.96548 47.8525 7.29337 45.3404 7.30662C44.3679 7.31192 43.9134 6.9873 43.5371 6.15257C42.9819 4.92035 42.3022 3.74377 41.6636 2.54998C40.756 0.850038 39.3277 0.000732422 37.3998 0.000732422C29.132 0.000732422 20.8655 0.000732422 12.5977 0.000732422C10.6686 0.000732422 9.24157 0.851363 8.33396 2.55395C7.58933 3.95312 6.83807 5.34964 6.13054 6.76736C5.92649 7.17545 5.6774 7.26289 5.25209 7.28807C4.46903 7.33709 3.63827 7.35299 2.92278 7.62991C1.03735 8.35865 0.0952988 9.84526 0.0264015 11.8486C-0.0212975 13.2186 0.00785065 14.5926 0.0197754 15.9653C0.0263977 16.7961 0.52459 17.3062 1.2891 17.3075C2.05626 17.3088 2.55842 16.8014 2.56637 15.9746C2.57829 14.6682 2.56637 13.3631 2.57034 12.0566C2.57432 10.4786 3.73102 9.55377 5.34748 9.87839ZM8.72881 7.25362C9.35154 6.07042 9.9491 4.9707 10.5109 3.85375C10.9693 2.94084 11.6742 2.53275 12.6984 2.54335C15.1456 2.56985 17.5929 2.5513 20.0388 2.5513C25.809 2.5513 31.5792 2.5566 37.3495 2.54468C38.2412 2.54335 38.9342 2.84544 39.3634 3.63778C39.969 4.75473 40.5533 5.88493 41.1429 7.01115C41.176 7.07475 41.1773 7.15557 41.1985 7.25229H8.72748L8.72881 7.25362Z" fill="white"/>
<path d="M25.0274 38.5759C26.2013 38.5759 27.3752 38.5918 28.5491 38.5706C29.5455 38.5534 30.1152 37.6047 29.6913 36.7143C29.4554 36.2214 29.0341 36.0293 28.5213 36.028C26.1735 36.0213 23.8256 36.0147 21.4778 36.0306C20.6748 36.0359 20.1793 36.546 20.174 37.2907C20.1687 38.0538 20.6815 38.564 21.5056 38.5732C22.6795 38.5865 23.8534 38.5772 25.0274 38.5759Z" fill="white"/>
<path d="M38.415 37.3159C38.4216 36.289 37.6743 35.5391 36.6422 35.5378C35.6206 35.5364 34.8416 36.3076 34.8495 37.3119C34.8574 38.303 35.6074 39.0476 36.613 39.0648C37.6412 39.082 38.4084 38.3374 38.415 37.3159Z" fill="white"/>
<path d="M11.5829 37.288C11.5763 38.3162 12.3249 39.0648 13.357 39.0661C14.3799 39.0661 15.155 38.2976 15.1484 37.2907C15.1418 36.2983 14.3958 35.5576 13.3849 35.5377C12.358 35.5192 11.5882 36.2651 11.5829 37.2867V37.288Z" fill="white"/>
</svg>
