<svg width="76" height="74" viewBox="0 0 76 74" fill="none" xmlns="http://www.w3.org/2000/svg">
<path d="M58.9075 33.2671H25.6208L16.1411 40.7528H49.4346L58.9075 33.2671Z" fill="#00C7B1"/>
<path d="M8.14469 25.8744C11.2799 17.2252 19.3167 10.3777 28.4727 10.3378C33.5901 10.3311 38.8019 14.3998 39.4154 19.7847H70.7536C64.4631 8.02426 51.9426 0 37.5276 0C16.8018 0 0 16.5671 0 37.0033C0 40.9324 0.627033 44.7218 1.77322 48.2785L6.97153 44.1766C6.3445 41.3312 5.17134 34.0649 8.14469 25.8811" fill="#0077DE"/>
<path d="M66.9039 48.1255C63.7688 56.7747 55.732 63.6222 46.5759 63.6621C41.4585 63.6687 36.2467 59.6001 35.6332 54.2151H4.30176C10.5856 65.9823 23.106 73.9999 37.521 73.9999C58.2468 73.9999 75.0419 57.4328 75.0419 37.0032C75.0419 33.0742 74.4149 29.2848 73.2619 25.728L68.0636 29.8299C68.6839 32.6753 69.8638 39.9417 66.8905 48.1255" fill="#0077DE"/>
<path d="M72.0955 22.783H38.9167L29.437 30.2687H62.7305L72.1225 22.8494L72.0955 22.783Z" fill="#A4D65E"/>
<path d="M2.93957 51.237H36.1184L45.5981 43.7512H12.3046L2.9126 51.1639L2.93957 51.237Z" fill="#0077DE"/>
</svg>
