<svg width="305" height="30" viewBox="0 0 305 30" fill="none" xmlns="http://www.w3.org/2000/svg">
<path d="M22.3777 10.0387C22.3777 16.0087 18.2986 19.7515 12.1159 19.7515H5.89276V28.9392H0V0.485352H12.1159C18.2986 0.485352 22.3777 4.06203 22.3777 10.0387ZM16.404 10.1185C16.404 7.59882 14.9207 6.01657 11.8732 6.01657H5.89951V14.227H11.8732C14.9207 14.227 16.404 12.5982 16.404 10.1251" fill="#0077DE"/>
<path d="M31.925 6.01657V11.7406H43.906V17.2718H31.925V23.408H45.3961V28.9326H26.0322V0.485352H45.3961V6.01657H31.925Z" fill="#0077DE"/>
<path d="M47.9985 14.7122C47.9985 6.34229 54.3026 0 62.9192 0C69.8031 0 75.1565 4.1883 76.8488 10.2381H70.5448C69.1828 7.31291 66.4252 5.52457 62.8788 5.52457C57.5658 5.52457 53.9385 9.38712 53.9385 14.7056C53.9385 20.0241 57.5658 23.8866 62.8788 23.8866C66.4252 23.8866 69.1828 22.0983 70.5448 19.1731H76.8488C75.1565 25.2295 69.8031 29.4112 62.9192 29.4112C54.3093 29.4112 47.9985 23.0689 47.9985 14.6989" fill="#0077DE"/>
<path d="M88.4792 28.9326H81.8785L87.0768 19.1L77.1387 0.485352H83.7394L90.3738 12.7976L96.8397 0.485352H103.434L88.4792 28.9326Z" fill="#0077DE"/>
<path d="M129.027 10.0387C129.027 16.0087 124.948 19.7515 118.765 19.7515H112.542V28.9392H106.649V0.485352H118.765C124.948 0.485352 129.027 4.06203 129.027 10.0387ZM123.053 10.1185C123.053 7.59882 121.57 6.01657 118.523 6.01657H112.549V14.227H118.523C121.57 14.227 123.053 12.5982 123.053 10.1251" fill="#0077DE"/>
<path d="M131.832 14.7122C131.832 6.34229 138.136 0 146.753 0C153.637 0 158.99 4.1883 160.682 10.2381H154.378C153.016 7.31291 150.259 5.52457 146.712 5.52457C141.399 5.52457 137.772 9.38712 137.772 14.7056C137.772 20.0241 141.399 23.8866 146.712 23.8866C150.259 23.8866 153.016 22.0983 154.378 19.1731H160.682C158.99 25.2295 153.637 29.4112 146.753 29.4112C138.143 29.4112 131.832 23.0689 131.832 14.6989" fill="#0077DE"/>
<path d="M193.935 6.01657H181.577V28.9326H175.684V0.485352H193.935V6.01657Z" fill="#0077DE"/>
<path d="M219.57 10.0387C219.57 16.0087 215.49 19.7515 209.308 19.7515H203.085V28.9392H197.192V0.485352H209.308C215.49 0.485352 219.57 4.06203 219.57 10.0387ZM213.596 10.1185C213.596 7.59882 212.113 6.01657 209.065 6.01657H203.091V14.227H209.065C212.113 14.227 213.596 12.5982 213.596 10.1251" fill="#0077DE"/>
<path d="M231.517 28.9326H224.923L230.114 19.1L220.183 0.485352H226.777L233.411 12.7976L239.884 0.485352H246.478L231.517 28.9326Z" fill="#0077DE"/>
<path d="M274.297 28.9326H268.404V6.00992H255.587V28.9326H249.688V0.485352H274.297V28.9326Z" fill="#0077DE"/>
<path d="M304.131 28.9326H298.239V6.00992H285.422V28.9326H279.529V0.485352H304.131V28.9326Z" fill="#0077DE"/>
</svg>
