<svg width="400" height="74" viewBox="0 0 400 74" fill="none" xmlns="http://www.w3.org/2000/svg">
<g clip-path="url(#clip0_1_743)">
<path d="M118.246 32.3297C118.246 38.2997 114.167 42.0426 107.985 42.0426H101.761V51.2302H95.8687V22.7764H107.985C114.167 22.7764 118.246 26.353 118.246 32.3297ZM112.273 32.4095C112.273 29.8898 110.789 28.3076 107.742 28.3076H101.768V36.518H107.742C110.789 36.518 112.273 34.8892 112.273 32.4161" fill="#BCBCBC"/>
<path d="M127.794 28.3076V34.0316H139.775V39.5628H127.794V45.699H141.265V51.2236H121.901V22.7764H141.265V28.3076H127.794Z" fill="#BCBCBC"/>
<path d="M143.867 37.0033C143.867 28.6333 150.171 22.291 158.788 22.291C165.672 22.291 171.025 26.4793 172.717 32.5291H166.413C165.051 29.6039 162.294 27.8156 158.747 27.8156C153.434 27.8156 149.807 31.6781 149.807 36.9966C149.807 42.3151 153.434 46.1776 158.747 46.1776C162.294 46.1776 165.051 44.3893 166.413 41.4641H172.717C171.025 47.5206 165.672 51.7022 158.788 51.7022C150.178 51.7022 143.867 45.3599 143.867 36.99" fill="#BCBCBC"/>
<path d="M184.348 51.2236H177.747L182.945 41.391L173.007 22.7764H179.608L186.242 35.0886L192.708 22.7764H199.302L184.348 51.2236Z" fill="#BCBCBC"/>
<path d="M224.896 32.3297C224.896 38.2997 220.817 42.0426 214.634 42.0426H208.411V51.2302H202.518V22.7764H214.634C220.817 22.7764 224.896 26.353 224.896 32.3297ZM218.922 32.4095C218.922 29.8898 217.439 28.3076 214.391 28.3076H208.418V36.518H214.391C217.439 36.518 218.922 34.8892 218.922 32.4161" fill="#BCBCBC"/>
<path d="M227.701 37.0033C227.701 28.6333 234.005 22.291 242.621 22.291C249.505 22.291 254.859 26.4793 256.551 32.5291H250.247C248.885 29.6039 246.127 27.8156 242.581 27.8156C237.268 27.8156 233.641 31.6781 233.641 36.9966C233.641 42.3151 237.268 46.1776 242.581 46.1776C246.127 46.1776 248.885 44.3893 250.247 41.4641H256.551C254.859 47.5206 249.505 51.7022 242.621 51.7022C234.011 51.7022 227.701 45.3599 227.701 36.99" fill="#BCBCBC"/>
<path d="M289.804 28.3076H277.445V51.2236H271.553V22.7764H289.804V28.3076Z" fill="#BCBCBC"/>
<path d="M315.438 32.3297C315.438 38.2997 311.359 42.0426 305.176 42.0426H298.953V51.2302H293.061V22.7764H305.176C311.359 22.7764 315.438 26.353 315.438 32.3297ZM309.465 32.4095C309.465 29.8898 307.981 28.3076 304.934 28.3076H298.96V36.518H304.934C307.981 36.518 309.465 34.8892 309.465 32.4161" fill="#BCBCBC"/>
<path d="M327.386 51.2236H320.792L325.983 41.391L316.052 22.7764H322.646L329.28 35.0886L335.753 22.7764H342.347L327.386 51.2236Z" fill="#BCBCBC"/>
<path d="M370.166 51.2236H364.273V28.3009H351.456V51.2236H345.556V22.7764H370.166V51.2236Z" fill="#BCBCBC"/>
<path d="M400 51.2236H394.107V28.3009H381.29V51.2236H375.397V22.7764H400V51.2236Z" fill="#BCBCBC"/>
<path d="M58.9075 33.2671H25.6208L16.1411 40.7528H49.4346L58.9075 33.2671Z" fill="#BCBCBC"/>
<path d="M8.14469 25.8744C11.2799 17.2252 19.3167 10.3777 28.4727 10.3378C33.5901 10.3311 38.8019 14.3998 39.4154 19.7847H70.7536C64.4631 8.02426 51.9426 0 37.5276 0C16.8018 0 0 16.5671 0 37.0033C0 40.9324 0.627033 44.7218 1.77322 48.2785L6.97153 44.1766C6.3445 41.3312 5.17134 34.0649 8.14469 25.8811" fill="#BCBCBC"/>
<path d="M66.9039 48.1255C63.7688 56.7747 55.732 63.6222 46.5759 63.6621C41.4585 63.6687 36.2467 59.6001 35.6332 54.2151H4.30176C10.5856 65.9823 23.106 73.9999 37.521 73.9999C58.2468 73.9999 75.0419 57.4328 75.0419 37.0032C75.0419 33.0742 74.4149 29.2848 73.2619 25.728L68.0636 29.8299C68.6839 32.6753 69.8638 39.9417 66.8905 48.1255" fill="#BCBCBC"/>
<path d="M72.0955 22.783H38.9167L29.437 30.2687H62.7304L72.1225 22.8494L72.0955 22.783Z" fill="#BCBCBC"/>
<path d="M2.93957 51.237H36.1184L45.598 43.7512H12.3046L2.9126 51.1639L2.93957 51.237Z" fill="#BCBCBC"/>
</g>
<defs>
<clipPath id="clip0_1_743">
<rect width="400" height="74" fill="white"/>
</clipPath>
</defs>
</svg>
