<svg width="492" height="700" viewBox="0 0 492 700" fill="none" xmlns="http://www.w3.org/2000/svg">
<path d="M213.278 -73.9071L207.795 -70.6355L242.072 -12.3731C234.655 -3.92721 207.496 27.0254 205.538 29.6938C203.511 32.4317 158.108 101.646 150.759 112.853C118.786 91.1119 78.7267 90.0677 76.5153 90.0445L76.0776 90.0445L75.64 90.1605C73.5207 90.7174 23.6715 104.129 2.15626 123.364C-3.4414 128.376 -16.7099 129.257 -35.2997 125.916L-28.1126 74.8931L12.4302 -66.1109L1.71859 -69.2434L-38.9393 72.1319L-46.2186 123.596C-78.0308 115.985 -110.05 100.834 -112.354 96.1933C-116.961 85.52 -156.398 18.6725 -158.057 15.8185L-163.539 19.09C-163.124 19.7861 -122.628 88.4203 -118.205 98.7456C-114.45 107.493 -76.1879 123.062 -47.14 129.977L-48.4991 139.513C-80.4956 131.949 -112.907 116.658 -115.21 111.971C-119.817 101.298 -159.254 34.4504 -160.913 31.5964L-166.395 34.868C-165.981 35.5641 -125.484 104.198 -121.061 114.524C-117.26 123.317 -78.5376 139.049 -49.3975 145.894L-53.9816 178.308L-35.6913 230.306L-37.9027 282.489L-58.6117 313.349C-70.9358 331.772 -85.1027 352.887 -99.2005 373.839L-112.377 354.674L-229.836 276.248L-254 279.148L-252.687 290.309L-232.577 287.896L-120.278 362.864L-105.881 383.84C-138.96 432.96 -169.851 478.438 -173.076 481.988C-173.03 481.941 -172.684 481.57 -172.062 481.199L-166.349 490.851C-164.691 489.854 -163.378 489.065 -105.835 403.748C-103.186 399.826 -100.56 395.905 -97.9336 392.03L-22.6761 450.78L17.6132 516.839C9.59682 525.516 2.20235 533.707 -4.36278 540.97C-7.49563 544.45 -10.5133 547.791 -13.3236 550.854L-66.2135 489.413L-66.4899 489.088L-108.277 460.479L-125.023 483.032L-119.933 486.884L-106.825 469.226L-87.1068 482.73L-104.176 495.863L-100.306 500.968L-81.5322 486.536L-70.7515 493.914L-68.8165 496.165L-99.1314 514.472L-95.8603 519.971L-64.578 501.084L-17.6544 555.587C-22.607 560.947 -26.454 564.938 -28.412 566.493C-42.9014 577.955 -85.4482 602.295 -85.8859 602.55L-78.814 615.103C-77.0172 614.082 -34.885 589.974 -19.5663 577.839C-15.1204 574.335 -6.62028 564.915 6.25665 550.668C11.8773 544.45 18.3504 537.304 25.4223 529.6L63.7766 592.503L76.3771 602.48C44.1042 622.505 21.3219 636.89 20.3314 638.236L25.4223 642.088C25.238 642.32 25.0998 642.459 25.0767 642.459C27.1269 640.696 50.462 626.078 81.6983 606.727L114.34 632.621L124.199 655.522L130.05 652.97L124.89 640.974L184.852 688.54L191.74 679.723L115.515 619.279L104.78 594.359L103.882 592.967C133.367 574.776 166.493 554.427 194.665 537.164L202.106 566.075L290.079 693.645L299.247 687.241L266.79 640.116L323.987 606.193L358.448 588.327L369.414 651.647C364.046 653.828 350.455 659.374 336.933 665.198C300.445 680.976 300.03 683.343 299.615 685.616L305.881 686.753C305.766 687.38 305.49 687.705 305.467 687.728C308.415 684.387 340.204 670.349 370.519 658.098L377.96 701L384.225 699.886L376.67 656.218L406.916 650.673L431.978 616.936L545.751 647.239L547.387 641.044L435.019 611.112L469.319 524.124L481.505 526.329L646.578 605.149L649.297 599.348L483.44 520.157L471.692 518.022L488.346 475.793C541.559 510.365 628.726 559.973 633.701 562.804L636.834 557.212C635.222 556.307 479.685 467.764 455.774 444.492C475.999 455.583 492.608 463.982 504.817 468.716C558.075 502.337 631.974 544.404 636.535 547.002L639.668 541.41C638.654 540.83 576.32 505.353 524.443 473.403C530.433 473.96 536.652 474.679 542.688 475.398C570.077 478.623 595.969 481.663 611.034 471.129C627.873 459.342 695.299 397.599 698.155 394.977L688.503 384.304C687.812 384.93 618.936 448.042 602.857 459.272C592.237 466.697 567.889 463.843 544.346 461.059C536.836 460.177 529.05 459.272 521.61 458.669C512.419 457.926 488.508 446.047 461.095 430.988C459.437 429.572 458.101 428.296 457.156 427.229C443.98 412.286 393.509 355.903 354.763 315.345C360.222 313.024 364.415 311.516 366.949 311.029C375.241 309.428 421.866 320.473 459.345 329.336C537.689 347.875 575.813 355.95 586.87 349.917C590.44 347.968 598.687 342.979 609.606 336.181L663.579 387.761L667.955 383.097L615.204 332.677C637.387 318.848 668.047 299.427 694.124 282.837C698.501 286.851 701.196 289.404 701.749 290.053C701.703 290.007 701.68 289.961 701.633 289.914L706.863 286.248C706.494 285.715 703.914 283.255 699.652 279.287C724.393 263.533 743.881 251.073 746 249.704L738.306 237.522C737.753 237.87 715.985 251.815 688.664 269.194C664.016 246.734 619.35 206.732 586.202 177.125L643.491 112.737C667.587 133.689 704.19 166.104 706.701 169.862C706.701 169.862 706.563 169.654 706.448 169.306L712.552 167.496C712.138 166.08 711.677 164.456 678.068 134.617C665.514 123.457 652.89 112.459 647.73 107.957L719.832 26.9094L715.086 22.6169L672.424 70.5772L624.948 22.0832L650.978 -5.87626L643.998 -12.4659L577.84 58.6278L577.633 58.8366L547.179 100.903L524.582 78.4431L599.931 0.295739L595.37 -4.18247L515.621 78.5359L543.402 106.147L543.402 106.171L492.884 150.279L473.811 119.164L475.055 85.3343L465.357 65.519L455.359 45.0773L492.931 -14.8557L487.54 -18.2898L448.057 44.6829L455.175 59.231L348.059 -6.78122C381.784 -19.8444 413.55 -32.4668 413.895 -32.606L411.569 -38.5691C411.2 -38.4299 374.573 -23.8817 338.223 -9.8439C286.186 10.2498 270.913 15.3312 266.536 16.4682L250.849 -10.2152L347 -39.7525L345.134 -45.9012L247.486 -15.8999L213.301 -74L213.278 -73.9071ZM245.482 -6.57235L284.481 59.7183L248.937 87.237L237.304 51.9454L206.575 39.5782C208.878 36.121 210.329 33.9167 210.652 33.5223C212.057 31.6196 231.292 9.62327 245.505 -6.57235L245.482 -6.57235ZM202.958 45.0541L232.19 56.818L245.712 97.8407L287.752 65.287L292.682 73.6633L311.963 106.449L312.308 107.052L327.88 117.911L337.486 143.504L340.941 149.189L217.977 190.675C201.184 173.111 186.257 155.43 177.204 140.418C171.376 130.742 164.005 122.946 155.896 116.635C167.253 99.3025 190.726 63.5468 202.935 45.0773L202.958 45.0541ZM332.372 292.49C322.674 282.884 315.049 275.853 310.903 273.092C296.966 263.834 257.069 230.608 222.976 195.757L344.42 154.781L403.23 251.397L332.395 292.49L332.372 292.49ZM424.307 515.98L398.692 562.989L389.501 559.323L410.117 513.405L424.307 515.98ZM400.558 511.664L403.644 512.221L383.557 556.956L373.468 552.942L381.046 510.643L400.535 511.641L400.558 511.664ZM358.149 546.863C359.209 532.083 361.443 515.98 363.724 509.785L374.666 510.342L367.455 550.552L358.172 546.863L358.149 546.863ZM353.749 527.303C352.828 534.287 352.229 541.155 351.906 545.193L313.137 538.139L319.265 507.511L357.205 509.46C356.03 513.265 354.878 518.88 353.749 527.326L353.749 527.303ZM195.333 494.749L172.781 407.205C175.684 405.697 178.563 404.212 181.443 402.773L194.872 404.351L240.644 454.887C238.156 472.034 235.208 490.689 233.849 496.722L195.333 494.749ZM124.706 491.942C124.568 492.058 109.825 504.1 95.4045 516.235C86.9274 523.359 80.201 529.136 75.4096 533.405C72.6914 535.819 70.6873 537.652 69.19 539.113L47.7438 505.864C78.7728 473.612 116.16 438.297 148.686 420.175C153.362 417.577 158.015 415.024 162.669 412.542L183.677 494.146L125.65 491.176L124.706 491.942ZM55.0461 190.42C54.1708 197.799 52.0975 214.783 51.4526 219.122C50.9227 219.517 50.0474 220.027 48.8956 220.63L20.7691 186.197L55.0461 190.397L55.0461 190.42ZM57.6031 221.048C58.1329 218.055 60.8741 195.339 61.3579 191.209L95.036 195.339L105.84 209.145L94.0685 221.234L123.255 282.536L105.379 294.694L102.891 286.805L52.9499 225.665C57.1884 223.183 57.4188 221.976 57.58 221.071L57.6031 221.048ZM157.44 338.524L187.87 313.86L194.158 321.888L164.788 349.615L157.416 338.524L157.44 338.524ZM183.93 308.825L154.307 332.84L131.386 284.74L153.362 269.797L183.93 308.825ZM150.391 339.452L181.627 386.531C176.628 388.991 171.653 391.52 166.7 394.095L112.267 316.366L107.406 301.028L126.042 288.36L150.391 339.452ZM168.381 355.022L198.12 326.946L227.883 364.976C226.385 365.811 225.21 366.461 224.381 366.925C212.38 371.937 199.917 377.621 187.409 383.7L168.381 355.022ZM202.774 322.538L204.041 321.354L204.225 321.169L255.157 253.764C276.649 273.069 295.745 288.383 304.545 294.253C308.484 296.875 315.925 303.72 325.392 313.164C293.58 328.756 252.554 351.263 233.526 361.843L202.774 322.561L202.774 322.538ZM250.411 249.448L199.48 316.853L198.812 317.479L138.619 240.608L203.211 202.95C217.954 218.937 234.655 235.132 250.411 249.448ZM149.4 264.739L128.599 278.87L101.739 222.487L109.825 214.203L149.4 264.739ZM92.9167 292.235L95.7501 301.214L70.2496 318.547C55.1152 291.144 39.2206 262.233 25.5605 237.313C32.7476 234.668 38.2762 232.464 42.5608 230.631L92.8937 292.235L92.9167 292.235ZM97.7542 307.572L102.131 321.424L156.702 399.339C151.635 402.031 146.636 404.769 141.706 407.53C136.408 410.477 131.041 413.841 125.627 417.507C119.2 406.834 97.5699 367.969 73.3595 324.162L97.7542 307.572ZM69.1669 329.73C104.204 393.167 116.091 414.027 120.421 421.103C110.286 428.273 100.035 436.487 89.876 445.281L15.1023 363.769L68.0843 327.758C68.4529 328.408 68.8214 329.081 69.1669 329.73ZM191.97 397.529C205.653 390.87 218.876 384.884 231.177 379.779L254.558 392.193L313.183 402.866L319.011 412.495L191.947 397.553L191.97 397.529ZM292.981 345.949C308.484 337.759 323.503 330.055 336.081 323.953C357.297 345.74 384.64 375.394 407.491 400.522C403.161 398.017 398.945 395.557 394.845 393.167C346.977 365.3 317.1 348.107 306.227 346.135C302.564 345.462 298.095 345.439 293.004 345.949L292.981 345.949ZM331.474 310.194C320.877 299.59 312.492 291.817 308.07 288.87C292.659 278.614 245.39 239.007 209.431 200.328L216.296 198.008C251.287 234.111 293.004 268.892 307.378 278.452C312.585 281.909 323.849 292.745 337.924 307.177C335.851 308.152 333.685 309.149 331.474 310.217L331.474 310.194ZM6.39484 128.144C25.7678 110.834 71.8391 97.8407 76.8378 96.4485C82.6658 96.6574 145.484 100.068 171.791 143.713C180.659 158.447 195.08 175.686 211.389 192.88L204.686 195.154C192.269 181.418 181.512 167.96 174.417 156.173C145.162 107.609 76.6075 105.869 73.6819 105.822L73.2442 105.822L72.8066 105.939C70.6873 106.495 20.8382 119.907 -0.677103 139.142C-6.22869 144.107 -19.2438 145.012 -37.5572 141.81L-36.2211 132.274C-15.2356 136.033 -0.930506 134.664 6.3718 128.144L6.39484 128.144ZM-14.2221 443.123L-91.6448 382.679C-68.9778 348.989 -49.5587 319.985 -49.3284 319.66L-26.8686 286.155L-24.4268 228.612L-42.5329 177.171L-38.4325 148.168C-17.7696 151.811 -3.64871 150.395 3.56144 143.945C22.9344 126.635 69.0057 113.642 74.0044 112.25C79.8324 112.459 142.651 115.869 168.957 159.514C176.006 171.208 186.557 184.504 198.788 198.1L134.634 235.503L98.4222 189.26L14.895 179.028L13.3286 177.125L-10.6285 172.763L-12.6096 183.807L7.31626 187.427L38.3222 225.387C32.7015 227.731 26.0673 230.306 19.9168 232.534L16.4153 233.81L18.2121 237.105C18.4425 237.545 41.0865 278.847 64.9745 322.12L5.38127 362.632L85.0615 449.504C64.007 468.182 43.4822 489.088 25.5144 508.3L-14.2221 443.123ZM72.2307 584.916L33.3005 521.062C36.5024 517.627 39.7965 514.147 43.1597 510.574L95.0129 590.925C92.1104 592.712 89.2771 594.475 86.4667 596.216L72.2077 584.916L72.2307 584.916ZM99.2054 597.422L105.01 610.926L91.834 600.462C94.0224 599.093 96.2569 597.724 98.5144 596.332L99.2054 597.399L99.2054 597.422ZM100.449 587.584L72.6914 544.589C78.888 538.116 108.466 513.428 127.724 497.696L185.29 500.643L193.03 530.691C162.093 549.624 129.152 569.834 100.426 587.584L100.449 587.584ZM196.992 501.246L312.815 507.163L306.112 540.714L311.087 564.706L260.432 547.977L215.305 565.449L212.472 561.342L196.992 501.246ZM219.037 570.878L260.593 554.799L312.608 571.969L318.804 601.808L263.104 634.849L219.037 570.878ZM324.655 598.629L313.437 544.728L352.045 551.759L357.228 581.737L324.632 598.629L324.655 598.629ZM375.518 649.93L364.668 587.352L391.85 591.598L426.058 614.128L403.23 644.849L375.495 649.93L375.518 649.93ZM429.122 608.49L394.177 585.473L363.516 580.67L358.909 554.079L401.548 571.041L430.896 517.187L462.846 522.987L429.122 608.467L429.122 608.49ZM401.456 505.33L362.963 503.358L362.272 501.641C361.581 501.919 360.867 502.383 360.153 503.195L314.566 500.852L314.082 500.759L314.082 500.829L294.548 499.831L301.85 456.186L295.561 455.119L288.144 499.506L240.276 497.047C241.704 490.991 243.616 478.832 247.163 454.307L247.371 452.799L204.501 405.465L324.033 419.526L432.416 491.362L472.268 499.088L465.242 516.908L401.479 505.307L401.456 505.33ZM449.508 447.369C454.023 452.497 466.44 461.5 482.841 472.312L474.663 493.056L434.858 485.329L327.512 414.166L317.146 397.065L256.677 386.067L238.917 376.647C268.978 364.674 292.797 358.409 303.67 360.381C312.631 362.006 352.505 385.232 387.658 405.697C406.086 416.44 423.133 426.301 438.543 435.002C443.381 440.408 447.159 444.654 449.531 447.346L449.508 447.369ZM442.874 420.941C437.138 417.693 431.356 414.398 425.62 411.103C401.295 384.164 367.755 347.481 342.139 321.122C344.351 320.078 346.47 319.103 348.474 318.175C380.862 352.028 422.511 398.156 442.874 420.941ZM580.097 337.248C578.6 337.782 571.298 338.872 538.656 332.468C517.855 328.385 492.562 322.445 467.684 316.574L474.986 275.853L468.72 274.716L461.464 315.113C408.136 302.49 374.873 294.88 364.207 296.945C360.038 297.757 352.943 300.472 344.074 304.416C342.462 302.769 340.895 301.144 339.352 299.59L419.147 253.3L424.63 222.788L459.183 192.601L598.779 326.018C589.842 331.54 583.184 335.578 580.074 337.271L580.097 337.248ZM492.286 215.363L552.455 155.755C560.287 162.739 568.603 170.164 577.149 177.798L520.09 241.931L492.286 215.363ZM683.044 272.907C656.391 289.868 625.685 309.312 604.4 322.538L524.72 246.362L581.917 182.067C619.235 215.41 659.962 251.931 683.044 272.907ZM550.427 112.899L584.981 65.171L620.548 26.9558L668.117 75.5427L581.387 173.018C570.445 163.25 561.024 154.85 554.436 148.957L552.201 146.961L487.632 210.932L463.998 188.355L549.99 113.247L550.405 112.899L550.427 112.899ZM457.364 181.441L436.009 157.287L469.895 125.197L487.978 154.688L457.364 181.418L457.364 181.441ZM468.582 86.8658L467.407 118.746L427.118 156.892L452.549 185.64L415.83 217.707L410.555 247.175L408.712 248.242L343.268 140.72L333.155 113.827L317.077 102.62L298.533 71.1109L393.854 29.1369L460.381 70.1364L468.559 86.8425L468.582 86.8658ZM340.458 -3.69516C340.458 -3.69516 340.504 -3.69522 340.527 -3.71841L387.266 25.0764L295.285 65.5655L269.853 22.3385C270.683 22.0832 271.581 21.8048 272.572 21.48C276.534 20.2038 282.293 18.1852 289.641 15.5168C301.988 11.0155 319.081 4.56504 340.458 -3.69516ZM364.968 191.464L368.354 196.894L328.203 222.185L324.816 216.756L364.968 191.464ZM140.716 133.666L109.249 167.241L73.9123 153.899L76.1468 147.889L107.521 159.723L136.085 129.234L140.716 133.643L140.716 133.666Z" fill="#F6F6F6" fill-opacity="0.1"/>
</svg>
