<svg width="20" height="20" viewBox="0 0 20 20" fill="none" xmlns="http://www.w3.org/2000/svg">
<path d="M0 15.7803C0.0430236 15.558 0.0766602 15.3337 0.130244 15.1141C0.375087 14.116 0.889806 13.2818 1.67479 12.6183C2.8685 11.6096 4.24917 10.9657 5.74326 10.5457C5.96815 10.4827 6.195 10.4275 6.42107 10.3688C6.44219 10.3472 6.46332 10.3257 6.48404 10.3038C6.43163 10.2819 6.36945 10.2717 6.32838 10.2365C4.86753 8.99209 4.15412 7.40639 4.2257 5.49032C4.32622 2.80078 6.41169 0.483098 9.07094 0.0713098C12.3118 -0.430509 15.2702 1.76857 15.7263 5.01864C16.1573 8.08905 13.9604 11.0428 10.894 11.4789C10.2337 11.5728 9.55749 11.5529 8.88984 11.5998C6.87478 11.7419 4.96805 12.2343 3.26471 13.3699C2.58572 13.8228 1.99903 14.3618 1.74871 15.1685C1.64976 15.4875 1.5907 15.8273 1.56997 16.1608C1.54024 16.6474 1.55941 17.1371 1.56254 17.6256C1.56567 18.1047 1.89499 18.4362 2.3749 18.4362C7.45716 18.4374 12.5394 18.4378 17.6217 18.4362C18.091 18.4362 18.4297 18.1055 18.4282 17.6404C18.4262 17.0224 18.4438 16.4015 18.3891 15.7874C18.3206 15.0178 17.9494 14.3802 17.3725 13.8674C16.8234 13.3797 16.1999 13.0066 15.537 12.6958C15.4549 12.6571 15.3696 12.6223 15.2925 12.5749C14.9585 12.3686 14.8318 11.9623 14.9855 11.6041C15.14 11.2448 15.5456 11.0158 15.898 11.1669C17.342 11.7854 18.6601 12.5761 19.4459 14.0173C19.8038 14.6741 19.9841 15.3842 19.9888 16.1318C19.9927 16.7499 20.0263 17.3739 19.9543 17.9845C19.8335 19.0116 19.0782 19.7616 18.0679 19.962C18.0316 19.9695 17.9972 19.9871 17.9616 20H2.03032C1.98886 19.9863 1.94779 19.9687 1.90516 19.9597C1.21639 19.8109 0.671559 19.4477 0.32737 18.8316C0.179135 18.5662 0.106777 18.2577 0 17.9685C0 17.2392 0 16.5096 0 15.7803ZM5.77924 5.77059C5.77611 8.09806 7.66915 9.99651 9.99399 9.99769C12.3114 9.99886 14.2056 8.11215 14.2134 5.79486C14.2212 3.46622 12.3329 1.56385 10.0085 1.55876C7.68127 1.55367 5.78276 3.44469 5.77963 5.77098L5.77924 5.77059Z" fill="#828282"/>
</svg>
