<svg width="24" height="24" viewBox="0 0 24 24" fill="none" xmlns="http://www.w3.org/2000/svg">
<path d="M0 18.9364C0.0516283 18.6696 0.0919922 18.4005 0.156293 18.1369C0.450105 16.9392 1.06777 15.9382 2.00975 15.142C3.4422 13.9315 5.099 13.1588 6.89191 12.6548C7.16178 12.5792 7.434 12.513 7.70529 12.4425C7.73063 12.4167 7.75598 12.3909 7.78085 12.3645C7.71796 12.3382 7.64333 12.326 7.59405 12.2838C5.84104 10.7905 4.98495 8.88767 5.07084 6.58839C5.19146 3.36093 7.69402 0.579718 10.8851 0.0855717C14.7741 -0.51661 18.3243 2.12228 18.8715 6.02237C19.3888 9.70686 16.7524 13.2514 13.0728 13.7746C12.2805 13.8874 11.469 13.8634 10.6678 13.9198C8.24973 14.0903 5.96166 14.6812 3.91765 16.0439C3.10286 16.5873 2.39884 17.2341 2.09846 18.2022C1.97971 18.5851 1.90884 18.9928 1.88396 19.393C1.84829 19.9768 1.87129 20.5645 1.87505 21.1507C1.8788 21.7256 2.27399 22.1235 2.84988 22.1235C8.94859 22.1249 15.0473 22.1253 21.146 22.1235C21.7092 22.1235 22.1157 21.7266 22.1138 21.1685C22.1115 20.4268 22.1326 19.6819 22.0669 18.9449C21.9847 18.0214 21.5393 17.2562 20.847 16.6409C20.1881 16.0556 19.4399 15.608 18.6444 15.235C18.5458 15.1885 18.4435 15.1467 18.351 15.0899C17.9502 14.8423 17.7982 14.3548 17.9826 13.925C18.168 13.4938 18.6547 13.219 19.0776 13.4003C20.8104 14.1424 22.3921 15.0913 23.3351 16.8208C23.7645 17.609 23.9809 18.4611 23.9865 19.3582C23.9912 20.0999 24.0316 20.8486 23.9452 21.5814C23.8002 22.814 22.8939 23.7139 21.6815 23.9544C21.6379 23.9634 21.5966 23.9845 21.5539 24H2.43639C2.38664 23.9836 2.33735 23.9624 2.28619 23.9516C1.45967 23.7731 0.805871 23.3372 0.392844 22.5979C0.214961 22.2794 0.128132 21.9093 0 21.5621C0 20.6871 0 19.8115 0 18.9364ZM6.93509 6.92471C6.93133 9.71767 9.20298 11.9958 11.9928 11.9972C14.7737 11.9986 17.0467 9.73458 17.0561 6.95383C17.0655 4.15946 14.7995 1.87662 12.0101 1.87051C9.21753 1.8644 6.93931 4.13363 6.93556 6.92518L6.93509 6.92471Z" fill="white"/>
</svg>
