<svg width="24" height="25" viewBox="0 0 24 25" fill="none" xmlns="http://www.w3.org/2000/svg">
<path d="M24 12.7507C23.9393 13.1979 23.8998 13.6488 23.8153 14.0909C23.0544 18.065 20.8638 20.9758 17.266 22.8175C15.9679 23.482 14.5757 23.8658 13.1235 23.9861C6.692 24.5196 1.61946 20.255 0.328153 14.8518C0.115232 13.9594 0.00250892 13.0551 3.96492e-06 12.1376C-0.00124851 11.6348 0.294336 11.2985 0.739593 11.2941C1.18673 11.2897 1.49045 11.6197 1.50047 12.1189C1.56122 15.1198 2.67279 17.6648 4.85649 19.7189C6.50914 21.2738 8.48054 22.1982 10.7394 22.4549C15.6197 23.0098 20.0804 20.2906 21.8363 15.7128C23.7689 10.6766 21.3617 4.78309 16.4557 2.5305C15.4844 2.08462 14.4743 1.77964 13.4153 1.63561C12.9569 1.57298 12.6582 1.21164 12.7114 0.799577C12.769 0.353068 13.1492 0.0831587 13.6295 0.147661C18.6682 0.825252 22.7694 4.68038 23.7608 9.68216C23.8547 10.1556 23.8935 10.6397 23.9587 11.1187C23.9693 11.1945 23.9856 11.269 24 11.3442V12.7507Z" fill="white"/>
<path d="M3.46822 0.000732422C3.59347 0.0395593 3.71809 0.0777599 3.84334 0.116587C5.32941 0.582509 6.08403 1.94333 5.75024 3.51394C5.59431 4.24538 5.15406 4.77581 4.60861 5.23547C4.00554 5.74335 3.38431 6.23056 2.7756 6.73218C2.59775 6.87872 2.43618 7.04467 2.28839 7.25446C2.37043 7.25446 2.45184 7.25446 2.53388 7.25446C3.47136 7.25446 4.40884 7.25133 5.34632 7.25822C5.69137 7.26073 5.96504 7.4868 6.05021 7.80618C6.13413 8.12118 6.0214 8.45434 5.73646 8.61904C5.6012 8.69732 5.42898 8.74742 5.27305 8.74867C3.78886 8.75806 2.30405 8.75994 0.819858 8.7518C0.164812 8.74804 -0.163337 8.17879 0.135379 7.5895C0.616331 6.6395 1.37158 5.93059 2.18005 5.26928C2.72989 4.81902 3.28035 4.37 3.82894 3.91911C4.21783 3.5991 4.34245 3.17201 4.32304 2.68605C4.30551 2.24204 4.10511 1.90763 3.7231 1.69158C3.25593 1.42856 2.75932 1.38597 2.25395 1.56445C1.76548 1.73667 1.52313 2.11429 1.53001 2.64972C1.53189 2.77372 1.53815 2.90147 1.51248 3.02171C1.43169 3.39871 1.09728 3.64044 0.722791 3.60787C0.360199 3.57656 0.0771386 3.28912 0.0433217 2.91838C-0.0856836 1.51247 0.670813 0.427828 2.03288 0.0627301C2.0905 0.0470741 2.14623 0.0213983 2.20259 0.000732422C2.62468 0.000732422 3.04614 0.000732422 3.46822 0.000732422Z" fill="white"/>
<path d="M10.7344 0.000626239C11.0857 0.225446 11.1834 0.550464 11.1784 0.95752C11.1615 2.26949 11.1721 3.58146 11.1721 4.89343C11.1721 4.98612 11.1721 5.0788 11.1721 5.21031C11.2936 5.21031 11.3988 5.20718 11.5034 5.21031C11.9399 5.22472 12.2737 5.55224 12.2724 5.96305C12.2712 6.37762 11.9405 6.69763 11.5009 6.70828C11.4014 6.71078 11.3018 6.70828 11.1709 6.70828C11.1709 7.15103 11.1765 7.57061 11.169 7.99019C11.1628 8.35529 10.9473 8.63334 10.6229 8.72038C10.1426 8.84876 9.69798 8.51498 9.67544 7.99457C9.66103 7.65953 9.67168 7.32324 9.67168 6.98758C9.67168 6.90366 9.67168 6.82037 9.67168 6.7089C9.56083 6.7089 9.47754 6.7089 9.39363 6.7089C8.30835 6.7089 7.22246 6.70452 6.13718 6.71141C5.78461 6.71391 5.50218 6.60432 5.35125 6.27492C5.20158 5.94802 5.29802 5.65995 5.52409 5.39067C6.94628 3.69982 8.36284 2.00334 9.7844 0.312493C9.88272 0.195387 10.0105 0.103329 10.1244 0C10.3274 0 10.5309 0 10.7338 0L10.7344 0.000626239ZM9.65602 2.79929C8.97029 3.61904 8.31963 4.39557 7.65018 5.19528H9.65602V2.79929Z" fill="white"/>
<path d="M5.81646 17.254C5.51774 17.249 5.29041 17.1175 5.15202 16.8526C5.01362 16.5877 5.03366 16.3241 5.20274 16.078C5.25096 16.0078 5.31421 15.9477 5.37496 15.887C8.99775 12.2635 12.6212 8.64074 16.2427 5.01544C16.4337 4.82381 16.6416 4.68416 16.9209 4.70921C17.2272 4.73676 17.4514 4.89645 17.5628 5.1839C17.6781 5.48073 17.6173 5.75565 17.395 5.9836C17.0293 6.3581 16.6573 6.7257 16.2872 7.09581C13.0063 10.3767 9.72544 13.6569 6.44583 16.939C6.2686 17.1163 6.08198 17.2584 5.81708 17.254H5.81646Z" fill="white"/>
<path d="M17.3943 12.5693C16.4074 12.5693 15.4712 12.5724 14.5349 12.568C14.0396 12.5655 13.7039 12.1848 13.769 11.7157C13.8198 11.3531 14.1078 11.0769 14.4917 11.0744C15.9202 11.0657 17.3492 11.0588 18.7777 11.0763C19.4108 11.0838 19.7152 11.732 19.3632 12.285C18.4032 13.7917 17.4375 15.2947 16.4738 16.7995C15.9014 17.6932 15.3296 18.5868 14.7572 19.4798C14.5819 19.7535 14.3345 19.8975 14.0076 19.8549C13.6939 19.8136 13.4791 19.632 13.3845 19.327C13.305 19.069 13.382 18.8411 13.5248 18.6194C14.7478 16.7162 15.9671 14.8106 17.1877 12.9049C17.2497 12.8079 17.3085 12.7089 17.3937 12.5699L17.3943 12.5693Z" fill="white"/>
</svg>
