<svg width="24" height="24" viewBox="0 0 24 24" fill="none" xmlns="http://www.w3.org/2000/svg">
<path d="M0.00133385 6.08604C0.0907016 5.86593 0.158728 5.63379 0.272772 5.42707C0.946365 4.19944 1.79869 3.09825 2.74439 2.07601C3.30194 1.47324 3.91551 0.917291 4.53842 0.381417C5.39008 -0.351145 6.25108 0.0930751 6.68991 0.69585C7.80834 2.23189 8.85075 3.82011 9.64705 5.55485C9.76777 5.81843 9.85447 6.09875 9.9405 6.37639C10.0766 6.81659 9.99319 7.23271 9.69507 7.5719C9.41029 7.8957 9.08417 8.18337 8.76805 8.47774C8.55463 8.67643 8.33521 8.86977 8.10379 9.04572C7.94506 9.16548 7.91505 9.2772 7.98508 9.46653C8.79072 11.6415 10.1299 13.405 12.022 14.741C12.8209 15.3049 13.6826 15.7498 14.6043 16.081C14.7644 16.1385 14.8564 16.1158 14.9638 15.9833C15.2412 15.6401 15.528 15.3036 15.8241 14.9765C16.0248 14.755 16.2349 14.5383 16.4643 14.3483C16.8058 14.0659 17.2026 13.987 17.6361 14.1068C18.5278 14.353 19.3308 14.7952 20.1091 15.2735C21.1361 15.905 22.1385 16.5774 23.1476 17.2377C23.5131 17.4765 23.7718 17.8037 23.9186 18.2225C24.0393 18.5677 24.0379 18.9002 23.8319 19.2033C23.6031 19.5398 23.377 19.885 23.1029 20.1833C21.8551 21.5401 20.4219 22.6707 18.8766 23.6715C18.265 24.0676 17.6541 24.0469 16.9925 23.9131C14.7997 23.4702 12.8136 22.5376 10.9589 21.3193C7.20745 18.8547 4.18028 15.6923 1.96676 11.7692C1.12777 10.282 0.494191 8.70921 0.168732 7.02332C0.140054 6.87613 0.117379 6.72761 0.0967039 6.57909C0.0753624 6.42188 0.0606901 6.26466 0.04335 6.10678C0.0286777 6.10009 0.0146723 6.0934 0 6.08671L0.00133385 6.08604ZM5.42276 1.66926C5.37807 1.70204 5.34273 1.72211 5.31338 1.74954C3.93618 3.01061 2.73906 4.42422 1.73333 5.99907C1.68198 6.08002 1.66197 6.20311 1.67465 6.30012C1.86805 7.72042 2.3469 9.05241 3.00649 10.3115C5.33739 14.7637 8.71669 18.2118 13.0557 20.7112C14.4963 21.5408 16.0295 22.1569 17.6895 22.3944C17.8135 22.4125 17.9723 22.3784 18.0776 22.3108C19.2521 21.5588 20.3338 20.6878 21.3336 19.7157C21.6824 19.3765 22.0132 19.0179 22.3653 18.6547C22.2552 18.569 22.1785 18.5061 22.0985 18.4479C20.708 17.4384 19.2414 16.5587 17.6902 15.8208C17.3434 15.6562 17.3474 15.6589 17.0866 15.9519C16.5937 16.5051 16.1009 17.0571 15.5993 17.6023C15.3886 17.8318 15.1138 17.8766 14.8184 17.8064C14.681 17.7736 14.5443 17.7381 14.4096 17.6953C12.096 16.9581 10.1766 15.6294 8.63133 13.7629C7.52557 12.4276 6.69191 10.9383 6.26308 9.24107C6.18572 8.93534 6.23507 8.66372 6.45982 8.43224C6.56987 8.31851 6.6699 8.19408 6.78795 8.08904C7.26613 7.66222 7.74699 7.23874 8.23251 6.82061C8.35922 6.71156 8.3799 6.6266 8.3032 6.46403C7.54491 4.86309 6.64923 3.34512 5.6135 1.90943C5.55547 1.82915 5.49012 1.75422 5.42276 1.66992V1.66926Z" fill="white"/>
<path d="M23.197 10.9411C23.197 11.0823 23.217 11.2274 23.193 11.3646C23.1217 11.7687 22.7442 12.049 22.342 12.0142C21.9312 11.9787 21.6198 11.6409 21.6144 11.202C21.6024 10.2019 21.463 9.22043 21.1062 8.28649C19.9091 5.1542 17.6742 3.22546 14.3896 2.55511C13.8961 2.45476 13.3846 2.43737 12.8797 2.40659C12.3769 2.37649 12.02 2.04868 12.0287 1.58439C12.0374 1.11943 12.3995 0.797634 12.9104 0.80031C17.9243 0.829077 22.2647 4.54474 23.061 9.49873C23.1377 9.97507 23.175 10.4574 23.231 10.9371C23.2197 10.9378 23.2084 10.9391 23.197 10.9398V10.9411Z" fill="white"/>
<path d="M19.2234 11.052C19.2854 11.729 18.7398 12.085 18.2883 12.0074C17.8828 11.9378 17.6354 11.6073 17.6174 11.1417C17.548 9.37682 16.7657 8.0194 15.2725 7.08748C14.5522 6.63791 13.7546 6.4265 12.9063 6.40977C12.3794 6.39907 12.0219 6.06524 12.0299 5.59292C12.0379 5.1206 12.4041 4.80282 12.9349 4.80817C16.1222 4.83761 18.8632 7.3504 19.176 10.5302C19.1933 10.7041 19.2087 10.8787 19.2247 11.0527L19.2234 11.052Z" fill="white"/>
</svg>
