<svg width="28" height="28" viewBox="0 0 28 28" fill="none" xmlns="http://www.w3.org/2000/svg">
<path d="M27.1257 28H26.6334C26.3554 27.8033 26.0438 27.6403 25.8049 27.4038C24.1005 25.7189 22.4112 24.0195 20.7185 22.3228C20.5514 22.1556 20.3953 21.9775 20.2282 21.7979C20.1057 21.8925 20.0125 21.9644 19.9194 22.0364C17.8433 23.6501 15.4898 24.5313 12.8665 24.6444C10.1836 24.7609 7.7014 24.0784 5.47938 22.5647C2.62808 20.6228 0.861417 17.9442 0.210903 14.5461C0.119832 14.074 0.0691599 13.5943 0 13.1181C0 12.5891 0 12.0601 0 11.5317C0.016434 11.4522 0.0417698 11.3734 0.0479326 11.2933C0.149276 9.96391 0.465631 8.68595 0.999052 7.4676C3.42307 1.92679 9.23524 -1.00876 15.1385 0.315114C20.448 1.50537 24.4593 6.34313 24.6524 11.7962C24.7373 14.1946 24.2025 16.4442 22.9816 18.5157C22.6365 19.1015 22.2311 19.6518 21.8278 20.2562C21.8847 20.3021 21.9696 20.3583 22.0401 20.4288C23.7492 22.1358 25.457 23.844 27.1641 25.5523C27.3634 25.7517 27.5743 25.9443 27.7496 26.1643C28.2131 26.7474 28.0091 27.571 27.336 27.891C27.2647 27.9246 27.1956 27.9637 27.1257 28ZM22.3784 12.3129C22.3585 6.7577 17.8241 2.23309 12.3139 2.27146C6.75302 2.30983 2.29049 6.78031 2.28365 12.3198C2.27611 17.853 6.80164 22.3804 12.3351 22.3749C17.8761 22.3694 22.3982 17.8386 22.379 12.3122L22.3784 12.3129Z" fill="white"/>
</svg>
