<svg width="30" height="30" viewBox="0 0 30 30" fill="none" xmlns="http://www.w3.org/2000/svg">
<path d="M3.83509e-06 14.9941C0.00586321 6.71484 6.7207 0 15 0C23.291 0 30.0117 6.73242 30 15.0234C29.9883 23.3027 23.2617 30.0117 14.9824 30C6.70312 29.9883 -0.00585554 23.2734 3.83509e-06 14.9941ZM14.7949 19.7578C14.8711 19.8105 14.9355 19.8516 15 19.8984C16.125 20.7246 17.2441 21.5566 18.3691 22.3828C19.166 22.9687 19.7168 22.7578 19.9219 21.791C20.4844 19.1484 21.0469 16.5059 21.6094 13.8633C21.8613 12.6797 22.1191 11.5019 22.3594 10.3125C22.4414 9.91992 22.5 9.49804 22.1426 9.19335C21.7969 8.89453 21.4277 9.06445 21.0703 9.19921C17.4961 10.5762 13.9219 11.959 10.3477 13.3359C9.12305 13.8105 7.89258 14.2793 6.66797 14.7715C6.39844 14.8769 6.08789 15.0351 6.12305 15.3809C6.15234 15.709 6.47461 15.791 6.74414 15.8789C7.86914 16.2363 8.99414 16.5762 10.1191 16.9394C10.3301 17.0039 10.4824 16.9746 10.6582 16.8633C13.3535 15.1582 16.0547 13.459 18.7559 11.7598C18.8965 11.6719 19.0371 11.5723 19.1894 11.5254C19.2949 11.4902 19.4238 11.543 19.541 11.5547C19.4941 11.6426 19.459 11.7422 19.3945 11.8125C19.3066 11.918 19.1953 12 19.0957 12.0937C16.9746 14.0098 14.8535 15.9316 12.7266 17.8418C12.5625 17.9883 12.4863 18.1406 12.4805 18.3691C12.4687 18.7969 12.4219 19.2246 12.3926 19.6523C12.3398 20.3789 12.293 21.1113 12.2461 21.8437C12.5566 21.8672 12.7559 21.7266 12.9434 21.5449C13.5527 20.9531 14.1738 20.3555 14.7949 19.7578Z" fill="#BCBCBC"/>
</svg>
